<svg xmlns="http://www.w3.org/2000/svg" version="1.1" xmlns:xlink="http://www.w3.org/1999/xlink" xmlns:svgjs="http://svgjs.dev/svgjs" width="1000" height="1000" viewBox="0 0 1000 1000"><rect width="1000" height="1000" fill="#ffffff"></rect><g transform="matrix(0.7,0,0,0.7,150,150.00002631226437)"><svg viewBox="0 0 280 280" data-background-color="#77d4fc" preserveAspectRatio="xMidYMid meet" height="1000" width="1000" xmlns="http://www.w3.org/2000/svg" xmlns:xlink="http://www.w3.org/1999/xlink"><g id="tight-bounds" transform="matrix(1,0,0,1,0,-0.000010524905746933655)"><svg viewBox="0 0 280 280" height="280" width="280"><g><svg viewBox="0 0 280 280" height="280" width="280"><g><svg viewBox="0 0 280 280" height="280" width="280"><g id="textblocktransform"><svg viewBox="0 0 280 280" height="280" width="280" id="textblock"><g><svg viewBox="0 0 280 280" height="280" width="280"><g transform="matrix(1,0,0,1,74.00336708925556,74.00336708925556)"><svg viewBox="0 0 131.99326582148888 131.99326582148888" height="131.99326582148888" width="131.99326582148888"><g><circle r="66" cx="65.99663291074444" cy="65.99663291074444" fill="#000000" data-fill-palette-color="accent"></circle></g></svg></g><g><path d="M14.264 194.263L10.523 183.696C10.426 183.422 10.432 183.181 10.541 182.973 10.651 182.766 10.83 182.618 11.08 182.53V182.53L35.547 173.867C35.822 173.77 36.067 173.768 36.282 173.86 36.497 173.952 36.654 174.136 36.751 174.411V174.411L40.386 184.677C41.049 186.551 41.285 188.189 41.093 189.592 40.901 190.995 40.38 192.163 39.53 193.097 38.68 194.03 37.605 194.727 36.306 195.187V195.187C35.282 195.549 34.342 195.693 33.486 195.616 32.629 195.54 31.882 195.334 31.243 194.998 30.604 194.662 30.075 194.301 29.657 193.915V193.915C29.528 195.057 29.061 196.199 28.256 197.341 27.452 198.483 26.288 199.324 24.764 199.863V199.863C23.39 200.35 22.018 200.484 20.648 200.267 19.278 200.049 18.031 199.443 16.906 198.45 15.781 197.457 14.901 196.061 14.264 194.263ZM23.658 182.209L14.553 185.432 17.127 192.701C17.693 194.3 18.567 195.381 19.751 195.946 20.935 196.511 22.164 196.568 23.438 196.117V196.117C24.762 195.648 25.7 194.824 26.252 193.645 26.804 192.465 26.797 191.076 26.231 189.478V189.478ZM34.711 178.295L26.655 181.147 29.096 188.042C29.662 189.64 30.46 190.721 31.488 191.285 32.517 191.848 33.668 191.904 34.942 191.453V191.453C36.216 191.002 37.044 190.245 37.427 189.182 37.81 188.119 37.718 186.788 37.152 185.19V185.19ZM25.205 215.917L24.021 214.271C23.897 214.099 23.854 213.902 23.89 213.68 23.926 213.458 24.03 213.285 24.202 213.162V213.162C24.31 213.084 24.436 213.01 24.581 212.939V212.939L51.214 205.926C51.491 205.857 51.748 205.852 51.985 205.91 52.223 205.967 52.45 206.147 52.666 206.448V206.448L54.244 208.642C54.461 208.943 54.559 209.216 54.538 209.459 54.517 209.702 54.43 209.945 54.277 210.185V210.185L39.132 233.171C39.034 233.307 38.931 233.413 38.823 233.491V233.491C38.651 233.615 38.454 233.658 38.232 233.622 38.01 233.586 37.838 233.482 37.714 233.31V233.31L36.53 231.664C36.345 231.406 36.274 231.171 36.318 230.96 36.362 230.749 36.422 230.583 36.499 230.463V230.463L39.804 225.392 32.192 214.808 26.334 216.329C26.211 216.385 26.038 216.395 25.816 216.359 25.594 216.322 25.39 216.175 25.205 215.917ZM50.229 209.866L35.64 213.748 41.906 222.461ZM50.178 245.424L48.622 244.124C48.398 243.938 48.281 243.727 48.269 243.493 48.257 243.259 48.337 243.04 48.507 242.837V242.837L65.148 222.919C65.335 222.695 65.545 222.568 65.777 222.538 66.009 222.508 66.237 222.586 66.461 222.773V222.773L73.904 228.991C76.201 230.911 77.571 232.971 78.013 235.17 78.454 237.369 77.792 239.526 76.025 241.64V241.64C74.717 243.206 73.259 244.155 71.652 244.487 70.045 244.819 68.409 244.618 66.745 243.883V243.883L64.663 255.921C64.622 256.094 64.559 256.232 64.474 256.333V256.333C64.338 256.496 64.153 256.583 63.919 256.595 63.685 256.606 63.487 256.544 63.324 256.408V256.408L61.86 255.185C61.514 254.896 61.336 254.592 61.327 254.273 61.317 253.954 61.327 253.652 61.358 253.367V253.367L63.409 241.925 58.071 237.465 51.496 245.334C51.326 245.538 51.12 245.65 50.877 245.672 50.634 245.694 50.401 245.611 50.178 245.424ZM66.608 227.247L60.237 234.872 65.27 239.077C66.795 240.351 68.201 240.982 69.489 240.97 70.776 240.959 71.947 240.322 73 239.061V239.061C74.037 237.821 74.455 236.565 74.257 235.295 74.058 234.024 73.186 232.743 71.641 231.451V231.451ZM85.082 267.833L83.206 266.966C82.965 266.854 82.803 266.685 82.719 266.456 82.635 266.227 82.648 265.993 82.759 265.752V265.752L92.565 244.538 85.638 241.336C85.398 241.224 85.235 241.054 85.151 240.826 85.067 240.597 85.081 240.363 85.192 240.122V240.122L85.892 238.607C86.015 238.342 86.19 238.168 86.419 238.084 86.647 238 86.882 238.013 87.122 238.125V238.125L104.513 246.163C104.777 246.285 104.952 246.46 105.036 246.689 105.12 246.918 105.101 247.164 104.978 247.429V247.429L104.278 248.944C104.167 249.185 103.997 249.347 103.768 249.431 103.54 249.515 103.293 249.496 103.028 249.374V249.374L96.137 246.188 86.331 267.403C86.22 267.644 86.05 267.806 85.822 267.89 85.593 267.974 85.346 267.955 85.082 267.833ZM127.394 278.936L125.49 278.816C125.199 278.798 124.98 278.698 124.832 278.516 124.684 278.334 124.618 278.111 124.635 277.847V277.847L126.259 251.943C126.278 251.652 126.372 251.425 126.541 251.263 126.71 251.101 126.941 251.029 127.232 251.048V251.048L129.056 251.162C129.374 251.182 129.607 251.27 129.757 251.425 129.906 251.58 129.992 251.699 130.013 251.78V251.78L141.915 272.837 143.159 253.002C143.177 252.711 143.271 252.485 143.44 252.323 143.61 252.161 143.84 252.089 144.131 252.107V252.107L146.035 252.227C146.326 252.245 146.552 252.346 146.713 252.528 146.874 252.711 146.945 252.948 146.927 253.239V253.239L145.305 279.103C145.289 279.367 145.189 279.587 145.005 279.761 144.822 279.935 144.598 280.014 144.333 279.998V279.998L142.429 279.878C142.138 279.86 141.925 279.767 141.789 279.599 141.654 279.432 141.561 279.32 141.512 279.263V279.263L129.637 258.407 128.404 278.083C128.387 278.347 128.287 278.56 128.105 278.721 127.922 278.882 127.685 278.954 127.394 278.936ZM164.072 277.775L161.988 278.081C161.7 278.123 161.464 278.07 161.282 277.923 161.1 277.776 160.989 277.571 160.951 277.309V277.309L157.176 251.59C157.138 251.327 157.185 251.1 157.317 250.906 157.449 250.713 157.66 250.595 157.948 250.552V250.552L160.032 250.247C160.321 250.204 160.556 250.257 160.738 250.404 160.921 250.551 161.031 250.756 161.069 251.018V251.018L164.844 276.737C164.883 277 164.836 277.227 164.703 277.421 164.571 277.614 164.361 277.732 164.072 277.775ZM196.875 267.525L181.133 273.198C180.858 273.297 180.617 273.292 180.409 273.184 180.201 273.076 180.052 272.897 179.963 272.648V272.648L171.163 248.23C171.064 247.956 171.06 247.711 171.151 247.495 171.243 247.279 171.425 247.122 171.699 247.023V247.023L187.143 241.457C187.417 241.359 187.658 241.363 187.866 241.471 188.074 241.579 188.227 241.771 188.326 242.045V242.045L188.838 243.466C188.937 243.74 188.939 243.979 188.843 244.182 188.747 244.386 188.562 244.537 188.288 244.636V244.636L175.575 249.218 178.526 257.407 190.417 253.121C190.691 253.023 190.932 253.027 191.14 253.135 191.348 253.243 191.501 253.435 191.6 253.709V253.709L192.099 255.092C192.189 255.342 192.188 255.574 192.097 255.79 192.006 256.006 191.823 256.164 191.549 256.262V256.262L179.658 260.548 182.717 269.036 195.73 264.346C196.004 264.247 196.243 264.246 196.446 264.342 196.65 264.437 196.801 264.622 196.9 264.896V264.896L197.425 266.355C197.515 266.604 197.514 266.837 197.423 267.053 197.332 267.269 197.149 267.426 196.875 267.525ZM213.15 257.831L211.562 258.958C211.346 259.112 211.117 259.168 210.877 259.127 210.637 259.086 210.44 258.958 210.287 258.742V258.742L195.262 237.578C195.093 237.34 195.029 237.102 195.07 236.861 195.111 236.621 195.239 236.424 195.455 236.271V236.271L197.076 235.121C197.335 234.937 197.575 234.863 197.797 234.901 198.019 234.938 198.182 234.985 198.286 235.041V235.041L214.421 243.28 212.028 225.285C212.01 225.168 212.014 225.002 212.041 224.788 212.068 224.574 212.211 224.375 212.47 224.191V224.191L214.058 223.064C214.296 222.895 214.535 222.831 214.775 222.872 215.015 222.912 215.22 223.052 215.389 223.289V223.289L230.414 244.453C230.567 244.669 230.623 244.897 230.583 245.137 230.542 245.378 230.403 245.582 230.165 245.751V245.751L228.577 246.878C228.361 247.032 228.133 247.088 227.893 247.047 227.652 247.006 227.456 246.878 227.302 246.662V246.662L215.982 230.716 218.07 245.124C218.137 245.402 218.126 245.661 218.038 245.903 217.949 246.145 217.776 246.357 217.516 246.541V246.541L216.512 247.255C216.231 247.454 215.972 247.548 215.737 247.537 215.501 247.525 215.253 247.45 214.991 247.31V247.31L202.045 240.61 213.366 256.556C213.519 256.772 213.576 257 213.535 257.24 213.494 257.48 213.366 257.677 213.15 257.831ZM242.397 232.539L241.179 234.159C241.051 234.328 240.876 234.429 240.654 234.46 240.431 234.492 240.235 234.444 240.066 234.316V234.316C239.96 234.237 239.851 234.139 239.74 234.022V234.022L225.111 210.688C224.963 210.444 224.881 210.2 224.865 209.956 224.85 209.712 224.953 209.442 225.176 209.146V209.146L226.801 206.985C227.024 206.689 227.254 206.514 227.493 206.462 227.732 206.409 227.989 206.42 228.264 206.494V206.494L254.718 214.103C254.877 214.157 255.01 214.223 255.115 214.303V214.303C255.285 214.43 255.385 214.605 255.417 214.828 255.448 215.05 255.4 215.246 255.273 215.416V215.416L254.055 217.036C253.864 217.29 253.661 217.428 253.446 217.449 253.231 217.469 253.055 217.461 252.917 217.424V217.424L247.093 215.779 239.257 226.199 242.454 231.338C242.544 231.439 242.605 231.601 242.637 231.823 242.668 232.046 242.588 232.284 242.397 232.539ZM229.165 210.454L237.218 223.223 243.668 214.646ZM263.082 200.035L262.349 201.796C262.237 202.065 262.07 202.24 261.85 202.32 261.63 202.401 261.398 202.39 261.153 202.288V202.288L237.194 192.307C236.925 192.195 236.741 192.033 236.644 191.82 236.546 191.607 236.553 191.366 236.665 191.097V191.097L237.368 189.409C237.49 189.115 237.649 188.923 237.845 188.833 238.041 188.742 238.18 188.7 238.264 188.706V188.706L262.051 184.319 243.705 176.677C243.436 176.565 243.252 176.402 243.155 176.189 243.057 175.976 243.064 175.735 243.176 175.466V175.466L243.91 173.705C244.022 173.436 244.19 173.255 244.416 173.162 244.641 173.07 244.888 173.079 245.157 173.191V173.191L269.08 183.157C269.324 183.259 269.499 183.425 269.604 183.655 269.709 183.885 269.711 184.123 269.609 184.367V184.367L268.875 186.129C268.763 186.398 268.605 186.569 268.403 186.642 268.2 186.716 268.064 186.767 267.994 186.795V186.795L244.406 191.221 262.605 198.802C262.85 198.904 263.018 199.068 263.111 199.293 263.204 199.518 263.194 199.765 263.082 200.035Z" fill="#000000" data-fill-palette-color="secondary"></path><path d="M33.748 99.774L30.007 110.34C29.91 110.615 29.753 110.798 29.538 110.891 29.322 110.983 29.09 110.985 28.84 110.897V110.897L4.373 102.235C4.098 102.137 3.906 101.985 3.797 101.778 3.688 101.57 3.682 101.329 3.779 101.054V101.054L7.414 90.788C8.077 88.915 8.925 87.493 9.957 86.523 10.989 85.553 12.129 84.973 13.377 84.783 14.625 84.592 15.898 84.727 17.197 85.186V85.186C18.221 85.549 19.042 86.029 19.66 86.627 20.277 87.226 20.729 87.856 21.014 88.519 21.299 89.183 21.483 89.796 21.564 90.359V90.359C22.384 89.553 23.465 88.959 24.809 88.577 26.153 88.195 27.587 88.274 29.111 88.814V88.814C30.484 89.3 31.635 90.059 32.563 91.09 33.491 92.122 34.08 93.377 34.329 94.857 34.578 96.336 34.384 97.975 33.748 99.774ZM18.862 103.232L27.967 106.455 30.54 99.187C31.106 97.588 31.107 96.197 30.542 95.013 29.977 93.829 29.058 93.012 27.784 92.561V92.561C26.46 92.092 25.213 92.142 24.041 92.711 22.87 93.281 22.001 94.364 21.435 95.963V95.963ZM7.809 99.319L15.865 102.171 18.305 95.277C18.871 93.678 18.932 92.336 18.487 91.251 18.042 90.166 17.182 89.398 15.908 88.947V88.947C14.634 88.495 13.514 88.563 12.548 89.148 11.582 89.734 10.816 90.826 10.25 92.425V92.425ZM41.984 83.29L40.801 84.935C40.677 85.107 40.504 85.212 40.282 85.248 40.06 85.284 39.863 85.24 39.691 85.117V85.117C39.584 85.039 39.473 84.943 39.36 84.829V84.829L24.237 61.811C24.084 61.57 23.997 61.328 23.976 61.085 23.956 60.841 24.054 60.569 24.27 60.268V60.268L25.848 58.074C26.065 57.773 26.292 57.593 26.529 57.535 26.767 57.478 27.024 57.483 27.301 57.552V57.552L53.911 64.597C54.071 64.647 54.205 64.71 54.312 64.788V64.788C54.484 64.911 54.588 65.084 54.625 65.306 54.661 65.528 54.617 65.725 54.493 65.897V65.897L53.31 67.543C53.124 67.801 52.924 67.943 52.71 67.968 52.496 67.994 52.319 67.989 52.181 67.955V67.955L46.322 66.434 38.71 77.018 42.016 82.088C42.108 82.187 42.172 82.348 42.209 82.57 42.245 82.791 42.17 83.031 41.984 83.29ZM28.286 61.492L36.608 74.087 42.874 65.374ZM63.43 57.575L61.874 58.875C61.65 59.062 61.422 59.14 61.19 59.11 60.957 59.08 60.756 58.963 60.586 58.76V58.76L43.945 38.842C43.758 38.618 43.67 38.389 43.682 38.155 43.693 37.921 43.811 37.711 44.035 37.524V37.524L51.477 31.306C53.775 29.386 56.045 28.404 58.288 28.36 60.53 28.317 62.535 29.352 64.302 31.467V31.467C65.61 33.033 66.285 34.636 66.326 36.276 66.367 37.917 65.878 39.491 64.859 40.998V40.998L76.335 45.187C76.498 45.258 76.622 45.345 76.707 45.446V45.446C76.843 45.609 76.896 45.807 76.865 46.039 76.835 46.272 76.739 46.456 76.576 46.592V46.592L75.112 47.815C74.766 48.104 74.435 48.225 74.12 48.177 73.804 48.13 73.509 48.066 73.234 47.985V47.985L62.338 43.933 57 48.393 63.575 56.262C63.745 56.466 63.819 56.689 63.798 56.931 63.776 57.174 63.653 57.389 63.43 57.575ZM48.463 38.175L54.834 45.8 59.867 41.595C61.392 40.321 62.263 39.049 62.481 37.78 62.698 36.511 62.28 35.246 61.226 33.985V33.985C60.19 32.745 59.029 32.109 57.743 32.079 56.457 32.048 55.041 32.678 53.496 33.97V33.97ZM93.754 38.067L91.878 38.934C91.637 39.045 91.403 39.059 91.174 38.975 90.945 38.891 90.775 38.729 90.664 38.488V38.488L80.858 17.273 73.931 20.475C73.691 20.586 73.456 20.6 73.227 20.516 72.999 20.432 72.829 20.27 72.718 20.029V20.029L72.017 18.514C71.895 18.249 71.876 18.002 71.96 17.774 72.044 17.545 72.206 17.375 72.447 17.264V17.264L89.837 9.226C90.102 9.104 90.348 9.085 90.577 9.169 90.805 9.253 90.981 9.427 91.103 9.692V9.692L91.804 11.207C91.915 11.448 91.928 11.682 91.844 11.911 91.76 12.139 91.586 12.315 91.321 12.437V12.437L84.43 15.622 94.236 36.837C94.347 37.078 94.361 37.312 94.277 37.541 94.193 37.769 94.018 37.945 93.754 38.067ZM128.688 28.831L126.784 28.95C126.493 28.969 126.263 28.897 126.093 28.735 125.924 28.573 125.831 28.36 125.814 28.095V28.095L124.19 2.191C124.172 1.9 124.236 1.664 124.384 1.482 124.532 1.3 124.752 1.2 125.042 1.182V1.182L126.867 1.067C127.185 1.048 127.427 1.105 127.595 1.241 127.763 1.376 127.862 1.483 127.894 1.561V1.561L142.333 20.966 141.089 1.131C141.071 0.841 141.135 0.604 141.283 0.422 141.431 0.24 141.651 0.14 141.942 0.122V0.122L143.846 0.003C144.137-0.015 144.373 0.056 144.556 0.217 144.739 0.378 144.839 0.604 144.857 0.895V0.895L146.479 26.76C146.496 27.024 146.424 27.254 146.264 27.45 146.103 27.646 145.891 27.752 145.627 27.769V27.769L143.723 27.888C143.432 27.906 143.208 27.841 143.053 27.691 142.898 27.542 142.792 27.442 142.736 27.393V27.393L128.349 8.183 129.583 27.859C129.599 28.123 129.527 28.347 129.366 28.53 129.205 28.712 128.979 28.813 128.688 28.831ZM161.071 29.813L158.987 29.508C158.698 29.465 158.488 29.347 158.356 29.154 158.223 28.96 158.177 28.732 158.215 28.47V28.47L161.99 2.751C162.028 2.489 162.139 2.284 162.321 2.137 162.503 1.99 162.739 1.937 163.027 1.979V1.979L165.111 2.285C165.4 2.328 165.61 2.446 165.742 2.639 165.875 2.833 165.921 3.06 165.883 3.323V3.323L162.108 29.042C162.07 29.304 161.959 29.509 161.777 29.656 161.595 29.803 161.359 29.856 161.071 29.813ZM189.868 39.058L174.125 33.385C173.851 33.286 173.668 33.129 173.577 32.913 173.486 32.697 173.485 32.464 173.575 32.215V32.215L182.375 7.797C182.474 7.523 182.627 7.332 182.835 7.224 183.043 7.116 183.284 7.111 183.558 7.21V7.21L199.002 12.775C199.276 12.874 199.458 13.031 199.55 13.247 199.641 13.463 199.637 13.708 199.538 13.983V13.983L199.026 15.404C198.927 15.678 198.776 15.863 198.573 15.958 198.369 16.054 198.13 16.052 197.856 15.954V15.954L185.142 11.372 182.191 19.561 194.082 23.846C194.356 23.945 194.539 24.103 194.63 24.318 194.721 24.534 194.718 24.779 194.619 25.054V25.054L194.12 26.437C194.03 26.687 193.881 26.865 193.674 26.973 193.466 27.081 193.224 27.086 192.95 26.987V26.987L181.059 22.702 178 31.19 191.013 35.88C191.287 35.979 191.472 36.13 191.568 36.333 191.664 36.537 191.662 36.776 191.563 37.05V37.05L191.038 38.508C190.948 38.757 190.799 38.936 190.591 39.044 190.383 39.152 190.142 39.157 189.868 39.058ZM201.185 46.161L199.597 45.034C199.381 44.88 199.252 44.684 199.212 44.443 199.171 44.203 199.227 43.975 199.381 43.759V43.759L214.406 22.595C214.574 22.358 214.779 22.218 215.019 22.178 215.259 22.137 215.487 22.193 215.703 22.347V22.347L217.324 23.497C217.583 23.681 217.732 23.884 217.769 24.106 217.807 24.327 217.816 24.497 217.798 24.614V24.614L215.341 42.563 231.54 34.37C231.645 34.314 231.802 34.264 232.013 34.218 232.224 34.173 232.459 34.242 232.719 34.427V34.427L234.307 35.554C234.544 35.723 234.684 35.927 234.724 36.167 234.765 36.407 234.701 36.646 234.532 36.884V36.884L219.507 58.048C219.354 58.264 219.157 58.392 218.917 58.433 218.677 58.474 218.438 58.41 218.2 58.241V58.241L216.612 57.114C216.396 56.96 216.268 56.763 216.227 56.523 216.186 56.283 216.242 56.055 216.396 55.839V55.839L227.716 39.893 214.803 46.616C214.563 46.771 214.315 46.846 214.057 46.843 213.8 46.839 213.542 46.745 213.283 46.561V46.561L212.278 45.847C211.997 45.648 211.823 45.435 211.756 45.209 211.689 44.983 211.679 44.723 211.724 44.43V44.43L213.78 29.999 202.459 45.945C202.306 46.161 202.109 46.289 201.869 46.33 201.629 46.371 201.401 46.315 201.185 46.161ZM225.878 67.022L224.66 65.402C224.532 65.232 224.484 65.036 224.516 64.814 224.547 64.591 224.648 64.416 224.817 64.289V64.289C224.923 64.209 225.048 64.132 225.191 64.058V64.058L251.669 56.48C251.944 56.406 252.201 56.395 252.44 56.447 252.678 56.5 252.909 56.675 253.132 56.971V56.971L254.756 59.131C254.979 59.428 255.083 59.698 255.067 59.942 255.052 60.186 254.97 60.43 254.822 60.674V60.674L240.169 83.976C240.073 84.114 239.973 84.223 239.867 84.302V84.302C239.697 84.43 239.501 84.478 239.279 84.446 239.056 84.415 238.881 84.314 238.754 84.145V84.145L237.535 82.525C237.344 82.27 237.269 82.037 237.308 81.825 237.348 81.613 237.404 81.446 237.478 81.324V81.324L240.675 76.185 232.84 65.765 227.015 67.41C226.893 67.468 226.721 67.482 226.499 67.45 226.276 67.419 226.069 67.276 225.878 67.022ZM250.767 60.44L236.265 64.632 242.715 73.209ZM244.003 95.052L243.269 93.291C243.157 93.022 243.15 92.781 243.248 92.568 243.346 92.355 243.517 92.197 243.762 92.095V92.095L267.721 82.115C267.99 82.003 268.235 81.987 268.455 82.067 268.675 82.148 268.841 82.323 268.953 82.592V82.592L269.656 84.28C269.778 84.573 269.803 84.821 269.729 85.024 269.656 85.227 269.588 85.356 269.525 85.411V85.411L255.886 105.387 274.232 97.745C274.501 97.633 274.746 97.617 274.966 97.698 275.186 97.778 275.352 97.953 275.464 98.222V98.222L276.198 99.983C276.31 100.252 276.319 100.5 276.227 100.725 276.134 100.95 275.953 101.119 275.684 101.231V101.231L251.761 111.196C251.517 111.298 251.276 111.305 251.038 111.217 250.801 111.13 250.631 110.964 250.529 110.719V110.719L249.796 108.958C249.684 108.689 249.673 108.456 249.764 108.261 249.854 108.065 249.914 107.932 249.942 107.863V107.863L263.412 88 245.214 95.581C244.969 95.683 244.734 95.687 244.509 95.595 244.284 95.502 244.115 95.321 244.003 95.052Z" fill="#000000" data-fill-palette-color="primary"></path><path d="M4.082 143.569C4.082 137.699 8.84 132.941 14.71 132.941 20.58 132.941 25.338 137.699 25.338 143.569 25.338 149.439 20.58 154.198 14.71 154.198 8.84 154.198 4.082 149.439 4.082 143.569ZM254.494 143.569C254.494 137.699 259.252 132.941 265.122 132.941 270.992 132.941 275.751 137.699 275.751 143.569 275.751 149.439 270.992 154.198 265.122 154.198 259.252 154.198 254.494 149.439 254.494 143.569Z" fill="#000000" data-fill-palette-color="primary"></path></g></svg></g></svg></g></svg></g></svg></g><defs></defs></svg><rect width="280" height="280" fill="none" stroke="none" visibility="hidden"></rect></g></svg></g></svg>